<?xml version="1.0" encoding="UTF-8" standalone="no"?>
<!DOCTYPE svg PUBLIC "-//W3C//DTD SVG 1.1//EN" "http://www.w3.org/Graphics/SVG/1.1/DTD/svg11.dtd">
<svg width="100%" height="100%" viewBox="0 0 3554 1092" version="1.1" xmlns="http://www.w3.org/2000/svg" xmlns:xlink="http://www.w3.org/1999/xlink" xml:space="preserve" xmlns:serif="http://www.serif.com/" style="fill-rule:evenodd;clip-rule:evenodd;stroke-linejoin:round;stroke-miterlimit:2;">
    <g transform="matrix(1,0,0,1,-657,-790)">
        <g id="LOGO" transform="matrix(1.50708,0,0,1.50708,-177.367,-347.91)">
            <g transform="matrix(1.39202,0,0,1.39202,-702.428,-301.281)">
                <path d="M1367.29,1081.12L1362.32,843.937L1410.37,838.974L1406.03,910.872L1481.65,910.872L1481.03,838.353L1516.67,837.112L1516.67,1087.33L1478.55,1077.4L1476.68,964.503L1404.79,954.576L1405.41,1077.4L1367.29,1081.12Z" style="fill:white;fill-rule:nonzero;"/>
                <g transform="matrix(1,0,0,1,0,-21.5486)">
                    <path d="M1589.15,824.837L1582.94,1054.71L1627.89,1056.57L1629.75,982.811L1698.55,982.191L1694.2,1057.81L1743.49,1059.05L1740.5,818.907L1697.21,821.823L1697.93,937.866L1627.42,928.87L1627.89,822.356L1589.15,824.837Z" style="fill:white;fill-rule:nonzero;"/>
                </g>
                <path d="M1912.37,1012.83L1916.72,802.39L1847.92,813.558L1841.72,1015.94L1912.37,1012.83ZM1959.64,1053.6L1802.35,1061.74L1806.97,779.16L1962.57,762.49L1959.64,1053.6Z" style="fill:white;fill-rule:nonzero;"/>
                <g transform="matrix(1,0,0,1,0,-21.5486)">
                    <path d="M2019.43,1084.07L2015.55,834.689L2160.62,848.649L2170.2,1079.41L2131.93,1079.41L2127.27,879.169L2056.93,879.169L2059.25,1079.41L2019.43,1084.07Z" style="fill:white;fill-rule:nonzero;"/>
                </g>
                <path d="M2230.7,1053.24L2227.32,842.912L2374.99,843.414L2387.4,883.24L2267.14,876.26L2272.57,925.313L2378.87,924.538L2370.34,961.262L2271.02,963.589L2279.55,1011.09L2379.64,1010.31L2393.61,1048.59L2230.7,1053.24Z" style="fill:white;fill-rule:nonzero;"/>
                <g transform="matrix(1,0,0,1,0,21.5542)">
                    <path d="M2467.18,1046.94L2488.12,931L2415.58,798.402L2460.84,765.054L2499.67,881.804L2548.24,762.727L2591.17,779.013L2536.28,912.841L2534.15,1054.69L2467.18,1046.94Z" style="fill:white;fill-rule:nonzero;"/>
                </g>
            </g>
            <g transform="matrix(1.37749,0,0,1.37749,-682.57,-285.171)">
                <g transform="matrix(1,0,0,1,0,21.8604)">
                    <path d="M1368.55,1232.81L1375.44,1206L1449.6,1182.32L1361.65,1170.6L1366.67,1131.62L1475.56,1083.53L1490.83,1124.95L1399.12,1146.74L1482.46,1155.77L1494.34,1198.68L1368.55,1232.81Z" style="fill:white;fill-rule:nonzero;"/>
                </g>
                <path d="M1606.44,1215.4L1609.58,1136.86L1555.33,1139.37L1553.45,1221.04L1606.44,1215.4ZM1530.01,1256.81L1524.49,1105.39L1634.13,1111.43L1631.97,1241.51L1530.01,1256.81Z" style="fill:white;fill-rule:nonzero;"/>
                <g transform="matrix(1,0,0,1,0,21.8604)">
                    <path d="M1685.37,1242.21L1677.84,1101.27L1796.36,1108.8L1791.35,1135.61L1716.57,1136.23L1717.19,1163.04L1790.09,1166.17L1799.5,1194.24L1717.82,1197.37L1715.94,1247.85L1685.37,1242.21Z" style="fill:white;fill-rule:nonzero;"/>
                </g>
                <path d="M1865.26,1249.73L1869.02,1141.88L1839.08,1143.76L1834.06,1108.17L1937.68,1106.29L1932.67,1144.38L1903.98,1141.25L1907.74,1250.99L1865.26,1249.73Z" style="fill:white;fill-rule:nonzero;"/>
                <g transform="matrix(1,0,0,1,0,-21.6971)">
                    <path d="M1985.11,1238.97L1973,1116.32L1997.55,1111.81L2009.09,1220.04L2029.12,1231.08L2032.13,1111.31L2051.67,1111.31L2058.69,1231.08L2082.24,1223.55L2088.26,1111.81L2115.32,1114.82L2105.51,1249.11L2041.17,1269.73L1985.11,1238.97Z" style="fill:white;fill-rule:nonzero;"/>
                </g>
                <path d="M2243.81,1164.48L2215.31,1116.48L2193.37,1164.33L2243.81,1164.48ZM2160.01,1244.43L2163.48,1160.75L2196.99,1088.83L2235.91,1093.53L2271.61,1161.48L2278.49,1245.97L2242.69,1254.62L2240.46,1196.49L2192.86,1197L2188.35,1252.12L2160.01,1244.43Z" style="fill:white;fill-rule:nonzero;"/>
                <path d="M2466.83,1270.02L2470.84,1109.25L2585.52,1123.29L2570.27,1151.76L2496.52,1152.96L2497.32,1180.62L2559.03,1183.03L2574.68,1207.48L2501.33,1207.08L2496.52,1232.73L2583.11,1237.55L2568.26,1264.4L2466.83,1270.02Z" style="fill:white;fill-rule:nonzero;"/>
            </g>
            <g transform="matrix(-5.01767,-2.89695,-2.89695,5.01767,6636.96,1047.73)">
                <g transform="matrix(1.1547,0,0,1.20651,-182.476,-166.574)">
                    <path d="M869.181,557.113L887.931,567.473L886.785,589.166L869.914,596.954L849.246,586.915L850.431,567.473L869.181,557.113Z" style="fill:white;"/>
                </g>
                <g transform="matrix(1.1547,0,0,1.20651,-130.515,-166.574)">
                    <path d="M871.811,555.88L892.681,565.584L891.807,585.822L869.079,596.214L851.672,587.487L852.002,565.834L871.811,555.88Z" style="fill:white;"/>
                </g>
                <g transform="matrix(1.1547,0,0,1.20651,-156.495,-211.574)">
                    <path d="M867.557,555.268L888.041,563.912L888.041,584.633L869.291,594.994L849.535,585.682L850.541,563.912L867.557,555.268Z" style="fill:white;"/>
                </g>
            </g>
            <path d="M2679.49,1278.37L2667.61,1325.63L2574.31,1317.71L2560.97,1343.62L2587.78,1457.75L2540.01,1472.18L2504.66,1324.55L2536.16,1270.25L2679.49,1278.37Z" style="fill:white;"/>
        </g>
    </g>
</svg>
